<?xml version="1.0" encoding="iso-8859-1"?>
<!-- Uploaded to: SVG Repo, www.svgrepo.com, Generator: SVG Repo Mixer Tools -->
<svg version="1.1" id="Layer_1" xmlns="http://www.w3.org/2000/svg" xmlns:xlink="http://www.w3.org/1999/xlink" 
	 viewBox="0 0 512.001 512.001" xml:space="preserve">
<path style="fill:#E21B1B;" d="M256,0C177.336,82.664,46.664,64,46.664,64V288c0,132,209.337,224.001,209.337,224.001
	s209.337-92,209.337-224.001V64C465.336,64,334.664,82.664,256,0z"/>
<g>
	<rect x="150.586" y="214.677" style="fill:#FFFFFF;" width="25.824" height="101.492"/>
	<path style="fill:#FFFFFF;" d="M256,109.432l-123.2,82.624h246.48L256,109.432z M256,170.4c-7.511,0-13.6-6.089-13.6-13.6
		c0-7.511,6.089-13.6,13.6-13.6c7.511,0,13.6,6.089,13.6,13.6C269.6,164.311,263.511,170.4,256,170.4L256,170.4z"/>
	<rect x="123.517" y="340.032" style="fill:#FFFFFF;" width="264.967" height="25.824"/>
	<path style="fill:#FFFFFF;" d="M252.256,307.704V297.12c-5.671-0.019-11.226-1.617-16.04-4.616l2.512-7.032
		c4.494,2.922,9.735,4.489,15.096,4.512c7.44,0,12.48-4.296,12.48-10.272c0-5.768-4.088-9.328-11.856-12.48
		c-10.696-4.192-17.296-9.016-17.296-18.136c0.133-8.87,6.989-16.183,15.832-16.888v-10.608h6.496v10.168
		c4.772,0.045,9.453,1.309,13.6,3.672l-2.632,6.92c-3.992-2.38-8.561-3.615-13.208-3.568c-8.08,0-11.12,4.8-11.12,9.016
		c0,5.456,3.88,8.184,13.008,11.952c10.8,4.408,16.248,9.856,16.248,19.2c-0.162,9.285-7.275,16.966-16.52,17.84v10.904
		C258.856,307.704,252.256,307.704,252.256,307.704z"/>
	<rect x="190.602" y="214.677" style="fill:#FFFFFF;" width="25.824" height="101.492"/>
	<rect x="295.574" y="214.677" style="fill:#FFFFFF;" width="25.824" height="101.492"/>
	<rect x="335.599" y="214.677" style="fill:#FFFFFF;" width="25.824" height="101.492"/>
</g>
</svg>